<?xml version="1.0" encoding="UTF-8"?>
<svg id="uuid-62995120-3b46-4b3e-97d1-565b1f07768d" data-name="Ebene 1" xmlns="http://www.w3.org/2000/svg" width="317" height="45.97" viewBox="0 0 317 45.97">
  <g>
    <g>
      <rect x="195.19" y="17.91" width="111.52" height="10.16" style="fill: #0db14b;"/>
      <path d="m306.71,30.89,0-2.82v2.82h-111.52v-2.82h111.52Z" style="fill: #1d1d1b;"/>
      <path d="m306.71,17.91,0-2.82v2.82h-111.52v-2.82h111.52Z" style="fill: #1d1d1b;"/>
    </g>
    <g>
      <ellipse cx="213.67" cy="22.99" rx="5.95" ry="6.02" style="fill: #1d1d1b;"/>
      <ellipse cx="238.52" cy="22.99" rx="5.95" ry="6.02" style="fill: #1d1d1b;"/>
      <ellipse cx="263.37" cy="22.99" rx="5.95" ry="6.02" style="fill: #1d1d1b;"/>
      <ellipse cx="288.22" cy="22.99" rx="5.95" ry="6.02" style="fill: #1d1d1b;"/>
    </g>
  </g>
  <path d="m0,.25h317M0,45.72h317" style="fill: none; stroke: #1d1d1b; stroke-miterlimit: 10; stroke-width: .5px;"/>
  <g>
    <path d="m10.17,32.52V13.51h10.11v1.92h-8.01v6.31h7.68v1.92h-7.68v6.94h8.33v1.92h-10.43Z" style="fill: #1d1d1b;"/>
    <path d="m32.73,32.86c-4.33,0-6.55-2.44-6.55-7.65v-11.7h2.21v11.36c0,1.37.02,2.79.68,3.97.79,1.45,2.26,2.05,3.68,2.05,1.67,0,3.3-.87,3.97-2.73.38-1.05.41-2.21.41-3.34v-11.3h2.14v11.75c0,4.86-2.35,7.6-6.55,7.6Z" style="fill: #1d1d1b;"/>
    <path d="m54.73,32.52c-.52-1.5-.54-3.1-.65-4.68-.23-2.79-.36-4.13-3.09-4.13h-3.48v8.81h-2.12V13.51h5.82c2.66,0,5.49.95,5.49,4.68,0,2.52-1.29,3.87-3.25,4.5,2.08.53,2.6,1.89,2.78,3.94.11,1.26.14,2.6.36,4.05.11.71.25,1.34.54,1.84h-2.39Zm-4-17.11h-3.23v6.44h2.64c2.05,0,4.38-.37,4.38-3.36,0-2.66-1.92-3.08-3.79-3.08Z" style="fill: #1d1d1b;"/>
    <path d="m68.78,32.84c-5.12,0-7.36-4.36-7.36-9.83s2.35-9.88,7.38-9.88,7.36,4.21,7.36,9.75-2.23,9.96-7.38,9.96Zm0-17.75c-3.81,0-5.12,4.05-5.12,7.86s1.26,7.94,5.12,7.94,5.15-4.07,5.15-7.94-1.22-7.86-5.15-7.86Z" style="fill: #1d1d1b;"/>
    <path d="m81.11,32.52V13.51h2.12v19.01h-2.12Z" style="fill: #1d1d1b;"/>
    <path d="m104.64,32.52V15.41l-5.76,17.11h-1.94l-5.78-17.14v17.14h-1.92V13.51h3.39l5.37,16.06,5.24-16.06h3.39v19.01h-1.99Z" style="fill: #1d1d1b;"/>
    <path d="m127.47,32.52V15.41l-5.76,17.11h-1.94l-5.78-17.14v17.14h-1.92V13.51h3.39l5.37,16.06,5.24-16.06h3.39v19.01h-1.99Z" style="fill: #1d1d1b;"/>
    <path d="m142.27,32.86c-4.33,0-6.55-2.44-6.55-7.65v-11.7h2.21v11.36c0,1.37.02,2.79.68,3.97.79,1.45,2.26,2.05,3.68,2.05,1.67,0,3.3-.87,3.97-2.73.38-1.05.41-2.21.41-3.34v-11.3h2.14v11.75c0,4.86-2.35,7.6-6.55,7.6Z" style="fill: #1d1d1b;"/>
    <path d="m164.97,32.52l-8.1-16.48v16.48h-1.92V13.51h2.84l8.1,16.54V13.51h1.92v19.01h-2.84Z" style="fill: #1d1d1b;"/>
  </g>
</svg>